<svg xmlns="http://www.w3.org/2000/svg" xmlns:xlink="http://www.w3.org/1999/xlink" xmlns:lucid="lucid" width="1770" height="1260"><g transform="translate(-70 -40)" lucid:page-tab-id="0_0"><path d="M90 288c0-3.3 2.7-6 6-6h1718c3.3 0 6 2.7 6 6v986c0 3.3-2.7 6-6 6H96c-3.3 0-6-2.7-6-6z" fill="#ffdba9" fill-opacity=".5"/><path d="M1355 326c0-3.3 2.7-6 6-6h268c3.3 0 6 2.7 6 6v188c0 3.3-2.7 6-6 6h-268c-3.3 0-6-2.7-6-6z" stroke="#5e5e5e" stroke-width="3" fill="#fff"/><path d="M1355 365.6h280" stroke="#5e5e5e" stroke-width="3" fill="none"/><use xlink:href="#a" transform="matrix(1,0,0,1,1363,328.00000000000006) translate(0.6500000000000625 19.933333333333334)"/><use xlink:href="#b" transform="matrix(1,0,0,1,1367,373.6) translate(56.48765432098766 33.94444444444445)"/><use xlink:href="#c" transform="matrix(1,0,0,1,1367,373.6) translate(131.73456790123458 33.94444444444445)"/><use xlink:href="#d" transform="matrix(1,0,0,1,1367,373.6) translate(85.5 60.61111111111112)"/><use xlink:href="#e" transform="matrix(1,0,0,1,1367,373.6) translate(128 87.27777777777777)"/><use xlink:href="#f" transform="matrix(1,0,0,1,1367,373.6) translate(3.462962962962962 113.94444444444446)"/><use xlink:href="#g" transform="matrix(1,0,0,1,1367,373.6) translate(52.72222222222222 113.94444444444446)"/><use xlink:href="#h" transform="matrix(1,0,0,1,1367,373.6) translate(90.9320987654321 113.94444444444446)"/><use xlink:href="#i" transform="matrix(1,0,0,1,1367,373.6) translate(151.42592592592592 113.94444444444446)"/><use xlink:href="#j" transform="matrix(1,0,0,1,1367,373.6) translate(185.9320987654321 113.94444444444446)"/><path d="M1637.5 456.03h119" stroke="#5e5e5e" stroke-width="2" fill="none"/><path d="M1637.53 457.03h-1.03v-2h1.03" fill="#5e5e5e"/><path d="M1771.76 456.03l-14.26 4.63v-9.27z" stroke="#5e5e5e" stroke-width="2" fill="#5e5e5e"/><path d="M1657.5 406c0-3.3 2.7-6 6-6h48c3.3 0 6 2.7 6 6v48c0 3.3-2.7 6-6 6h-48c-3.3 0-6-2.7-6-6z" stroke="#000" stroke-opacity="0" stroke-width="3" fill="#fff" fill-opacity="0"/><use xlink:href="#k" transform="matrix(1,0,0,1,1662.5,405.00000000000006) translate(-8.888888888888886 29.444444444444443)"/><path d="M650 326c0-3.3 2.7-6 6-6h298c3.3 0 6 2.7 6 6v188c0 3.3-2.7 6-6 6H656c-3.3 0-6-2.7-6-6z" stroke="#5e5e5e" stroke-width="3" fill="#fff"/><path d="M650 360.27h310" stroke="#5e5e5e" stroke-width="3" fill="none"/><use xlink:href="#l" transform="matrix(1,0,0,1,658,328) translate(15.746604938271673 16.544444444444444)"/><use xlink:href="#b" transform="matrix(1,0,0,1,662,368.26666666666665) translate(2.944444444444457 36.44444444444445)"/><use xlink:href="#m" transform="matrix(1,0,0,1,662,368.26666666666665) translate(78.19135802469137 36.44444444444445)"/><use xlink:href="#n" transform="matrix(1,0,0,1,662,368.26666666666665) translate(138.6851851851852 36.44444444444445)"/><use xlink:href="#o" transform="matrix(1,0,0,1,662,368.26666666666665) translate(187.94444444444446 36.44444444444445)"/><use xlink:href="#e" transform="matrix(1,0,0,1,662,368.26666666666665) translate(143.5 63.11111111111112)"/><use xlink:href="#f" transform="matrix(1,0,0,1,662,368.26666666666665) translate(70.10493827160494 89.77777777777777)"/><use xlink:href="#p" transform="matrix(1,0,0,1,662,368.26666666666665) translate(119.3641975308642 89.77777777777777)"/><use xlink:href="#q" transform="matrix(1,0,0,1,662,368.26666666666665) translate(179.85802469135803 89.77777777777777)"/><use xlink:href="#r" transform="matrix(1,0,0,1,662,368.26666666666665) translate(64.54938271604938 116.44444444444446)"/><use xlink:href="#s" transform="matrix(1,0,0,1,662,368.26666666666665) translate(94.17901234567901 116.44444444444446)"/><use xlink:href="#t" transform="matrix(1,0,0,1,662,368.26666666666665) translate(148.43827160493828 116.44444444444446)"/><use xlink:href="#u" transform="matrix(1,0,0,1,662,368.26666666666665) translate(166.95679012345678 116.44444444444446)"/><path d="M962.5 452.55H1335" stroke="#5e5e5e" stroke-width="2" fill="none"/><path d="M962.53 453.55h-1.03v-2h1.03" fill="#5e5e5e"/><path d="M1350.26 452.55l-14.26 4.63v-9.27z" stroke="#5e5e5e" stroke-width="2" fill="#5e5e5e"/><path d="M1352.5 385.06H980" stroke="#5e5e5e" stroke-width="2" fill="none"/><path d="M1353.5 386.06h-1.03v-2h1.03" fill="#5e5e5e"/><path d="M964.74 385.06l14.26-4.64v9.27z" stroke="#5e5e5e" stroke-width="2" fill="#5e5e5e"/><path d="M1080 346c0-3.3 2.7-6 6-6h138c3.3 0 6 2.7 6 6v51.33c0 3.32-2.7 6-6 6h-138c-3.3 0-6-2.68-6-6z" stroke="#000" stroke-opacity="0" stroke-width="3" fill="#fff" fill-opacity="0"/><use xlink:href="#v" transform="matrix(1,0,0,1,1085,344.99999999999994) translate(2.191358024691368 31.27777777777778)"/><use xlink:href="#w" transform="matrix(1,0,0,1,1085,344.99999999999994) translate(82.31481481481481 31.27777777777778)"/><path d="M1125 406c0-3.3 2.7-6 6-6h48c3.3 0 6 2.7 6 6v48c0 3.3-2.7 6-6 6h-48c-3.3 0-6-2.7-6-6z" stroke="#000" stroke-opacity="0" stroke-width="3" fill="#fff" fill-opacity="0"/><use xlink:href="#k" transform="matrix(1,0,0,1,1130,405) translate(-8.888888888888886 29.444444444444443)"/><path d="M300 646c0-3.3 2.7-6 6-6h268c3.3 0 6 2.7 6 6v168c0 3.3-2.7 6-6 6H306c-3.3 0-6-2.7-6-6z" stroke="#5e5e5e" stroke-width="3" fill="#fff"/><path d="M300 680.27h280" stroke="#5e5e5e" stroke-width="3" fill="none"/><use xlink:href="#x" transform="matrix(1,0,0,1,307.99999999999994,648) translate(71.41203703703707 16.544444444444444)"/><use xlink:href="#y" transform="matrix(1,0,0,1,311.99999999999994,688.2666666666667) translate(38.469135802469125 53.111111111111114)"/><use xlink:href="#t" transform="matrix(1,0,0,1,311.99999999999994,688.2666666666667) translate(92.72839506172838 53.111111111111114)"/><use xlink:href="#z" transform="matrix(1,0,0,1,311.99999999999994,688.2666666666667) translate(111.2469135802469 53.111111111111114)"/><use xlink:href="#A" transform="matrix(1,0,0,1,311.99999999999994,688.2666666666667) translate(172.91358024691357 53.111111111111114)"/><use xlink:href="#B" transform="matrix(1,0,0,1,311.99999999999994,688.2666666666667) translate(195.07407407407408 53.111111111111114)"/><use xlink:href="#C" transform="matrix(1,0,0,1,311.99999999999994,688.2666666666667) translate(7.666666666666657 79.77777777777777)"/><use xlink:href="#D" transform="matrix(1,0,0,1,311.99999999999994,688.2666666666667) translate(97.66666666666666 79.77777777777777)"/><use xlink:href="#E" transform="matrix(1,0,0,1,311.99999999999994,688.2666666666667) translate(132.17283950617283 79.77777777777777)"/><path d="M647.5 460.8H340.14c-3.3 0-6 2.7-6 6V620" stroke="#5e5e5e" stroke-width="2" fill="none"/><path d="M648.5 461.8h-1.03v-2h1.03" fill="#5e5e5e"/><path d="M334.14 635.26L329.5 621h9.28z" stroke="#5e5e5e" stroke-width="2" fill="#5e5e5e"/><path d="M350 486c0-3.3 2.7-6 6-6h298c3.3 0 6 2.7 6 6v24.67c0 3.3-2.7 6-6 6H356c-3.3 0-6-2.7-6-6z" stroke="#000" stroke-opacity="0" stroke-width="3" fill="#fff" fill-opacity="0"/><use xlink:href="#v" transform="matrix(1,0,0,1,355,485) translate(24.228395061728406 19.46527777777778)"/><use xlink:href="#F" transform="matrix(1,0,0,1,355,485) translate(104.35185185185185 19.46527777777778)"/><use xlink:href="#G" transform="matrix(1,0,0,1,355,485) translate(172.19135802469134 19.46527777777778)"/><use xlink:href="#H" transform="matrix(1,0,0,1,355,485) translate(232.68518518518516 19.46527777777778)"/><path d="M582.5 696.62h148.62c3.3 0 6-2.7 6-6V540" stroke="#5e5e5e" stroke-width="2" fill="none"/><path d="M582.53 697.62h-1.03v-2h1.03" fill="#5e5e5e"/><path d="M737.12 524.74l4.64 14.26h-9.27z" stroke="#5e5e5e" stroke-width="2" fill="#5e5e5e"/><path d="M630 646c0-3.3 2.7-6 6-6h48c3.3 0 6 2.7 6 6v48c0 3.3-2.7 6-6 6h-48c-3.3 0-6-2.7-6-6z" stroke="#000" stroke-opacity="0" stroke-width="3" fill="#fff" fill-opacity="0"/><use xlink:href="#I" transform="matrix(1,0,0,1,635,645) translate(-20.648148148148152 29.444444444444443)"/><path d="M1355 806c0-3.3 2.7-6 6-6h268c3.3 0 6 2.7 6 6v188c0 3.3-2.7 6-6 6h-268c-3.3 0-6-2.7-6-6z" stroke="#5e5e5e" stroke-width="3" fill="#fff"/><path d="M1355 845.6h280" stroke="#5e5e5e" stroke-width="3" fill="none"/><use xlink:href="#J" transform="matrix(1,0,0,1,1363,808) translate(7.501851851851896 19.933333333333334)"/><use xlink:href="#b" transform="matrix(1,0,0,1,1367,853.6) translate(56.48765432098766 33.94444444444445)"/><use xlink:href="#c" transform="matrix(1,0,0,1,1367,853.6) translate(131.73456790123458 33.94444444444445)"/><use xlink:href="#K" transform="matrix(1,0,0,1,1367,853.6) translate(28.15432098765433 60.61111111111112)"/><use xlink:href="#L" transform="matrix(1,0,0,1,1367,853.6) translate(119.32716049382717 60.61111111111112)"/><use xlink:href="#M" transform="matrix(1,0,0,1,1367,853.6) translate(155.12962962962962 60.61111111111112)"/><use xlink:href="#e" transform="matrix(1,0,0,1,1367,853.6) translate(128 87.27777777777777)"/><use xlink:href="#f" transform="matrix(1,0,0,1,1367,853.6) translate(3.462962962962962 113.94444444444446)"/><use xlink:href="#g" transform="matrix(1,0,0,1,1367,853.6) translate(52.72222222222222 113.94444444444446)"/><use xlink:href="#h" transform="matrix(1,0,0,1,1367,853.6) translate(90.9320987654321 113.94444444444446)"/><use xlink:href="#i" transform="matrix(1,0,0,1,1367,853.6) translate(151.42592592592592 113.94444444444446)"/><use xlink:href="#j" transform="matrix(1,0,0,1,1367,853.6) translate(185.9320987654321 113.94444444444446)"/><path d="M1637.5 936.03h119" stroke="#5e5e5e" stroke-width="2" fill="none"/><path d="M1637.53 937.03h-1.03v-2h1.03" fill="#5e5e5e"/><path d="M1771.76 936.03l-14.26 4.63v-9.27z" stroke="#5e5e5e" stroke-width="2" fill="#5e5e5e"/><path d="M1657.5 886c0-3.3 2.7-6 6-6h48c3.3 0 6 2.7 6 6v48c0 3.3-2.7 6-6 6h-48c-3.3 0-6-2.7-6-6z" stroke="#000" stroke-opacity="0" stroke-width="3" fill="#fff" fill-opacity="0"/><use xlink:href="#k" transform="matrix(1,0,0,1,1662.5,885) translate(-8.888888888888886 29.444444444444443)"/><path d="M648.57 946c0-3.3 2.7-6 6-6H954c3.3 0 6 2.7 6 6v168c0 3.3-2.7 6-6 6H654.57c-3.3 0-6-2.7-6-6z" stroke="#5e5e5e" stroke-width="3" fill="#fff"/><path d="M648.57 980.27H960" stroke="#5e5e5e" stroke-width="3" fill="none"/><use xlink:href="#N" transform="matrix(1,0,0,1,656.5717079641502,948) translate(21.86388888888898 16.544444444444444)"/><use xlink:href="#f" transform="matrix(1,0,0,1,660.5717079641502,988.2666666666667) translate(70.60493827160494 53.111111111111114)"/><use xlink:href="#p" transform="matrix(1,0,0,1,660.5717079641502,988.2666666666667) translate(119.8641975308642 53.111111111111114)"/><use xlink:href="#q" transform="matrix(1,0,0,1,660.5717079641502,988.2666666666667) translate(180.35802469135803 53.111111111111114)"/><use xlink:href="#r" transform="matrix(1,0,0,1,660.5717079641502,988.2666666666667) translate(65.04938271604938 79.77777777777777)"/><use xlink:href="#s" transform="matrix(1,0,0,1,660.5717079641502,988.2666666666667) translate(94.67901234567901 79.77777777777777)"/><use xlink:href="#t" transform="matrix(1,0,0,1,660.5717079641502,988.2666666666667) translate(148.93827160493828 79.77777777777777)"/><use xlink:href="#u" transform="matrix(1,0,0,1,660.5717079641502,988.2666666666667) translate(167.45679012345678 79.77777777777777)"/><path d="M1260 906c0-3.3 2.7-6 6-6h48c3.3 0 6 2.7 6 6v48c0 3.3-2.7 6-6 6h-48c-3.3 0-6-2.7-6-6z" stroke="#000" stroke-opacity="0" stroke-width="3" fill="#fff" fill-opacity="0"/><use xlink:href="#k" transform="matrix(1,0,0,1,1265,905) translate(-8.888888888888886 29.444444444444443)"/><path d="M646.07 1002.8H338.7c-3.3 0-6-2.7-6-6V840" stroke="#5e5e5e" stroke-width="2" fill="none"/><path d="M647.07 1003.8h-1.02v-2h1.02" fill="#5e5e5e"/><path d="M332.7 824.74l4.65 14.26h-9.27z" stroke="#5e5e5e" stroke-width="2" fill="#5e5e5e"/><path d="M582.5 777.85h148.97c3.3 0 6 2.68 6 6V920" stroke="#5e5e5e" stroke-width="2" fill="none"/><path d="M582.53 778.85h-1.03v-2h1.03" fill="#5e5e5e"/><path d="M737.47 935.26L732.83 921h9.27z" stroke="#5e5e5e" stroke-width="2" fill="#5e5e5e"/><path d="M630 796c0-3.3 2.7-6 6-6h48c3.3 0 6 2.7 6 6v48c0 3.3-2.7 6-6 6h-48c-3.3 0-6-2.7-6-6z" stroke="#000" stroke-opacity="0" stroke-width="3" fill="#fff" fill-opacity="0"/><use xlink:href="#I" transform="matrix(1,0,0,1,635,795) translate(-20.648148148148152 29.444444444444443)"/><path d="M340 966c0-3.3 2.7-6 6-6h298c3.3 0 6 2.7 6 6v24.67c0 3.3-2.7 6-6 6H346c-3.3 0-6-2.7-6-6z" stroke="#000" stroke-opacity="0" stroke-width="3" fill="#fff" fill-opacity="0"/><use xlink:href="#v" transform="matrix(1,0,0,1,345,965) translate(24.228395061728406 19.46527777777778)"/><use xlink:href="#F" transform="matrix(1,0,0,1,345,965) translate(104.35185185185185 19.46527777777778)"/><use xlink:href="#G" transform="matrix(1,0,0,1,345,965) translate(172.19135802469134 19.46527777777778)"/><use xlink:href="#H" transform="matrix(1,0,0,1,345,965) translate(232.68518518518516 19.46527777777778)"/><path d="M1155.2 683.6c2.65-2 6.95-2 9.6 0l70.4 52.8c2.65 2 2.65 5.2 0 7.2l-70.4 52.8c-2.65 2-6.95 2-9.6 0l-70.4-52.8c-2.65-2-2.65-5.2 0-7.2z" stroke="#5e5e5e" stroke-width="3" fill="#fff"/><use xlink:href="#O" transform="matrix(1,0,0,1,1085,685) translate(19.572901234567887 59.02777777777778)"/><path d="M140 1041.06c0-3.3 2.7-6 6-6h268c3.3 0 6 2.7 6 6v179c0 3.32-2.7 6-6 6H146c-3.3 0-6-2.68-6-6z" stroke="#5e5e5e" stroke-width="3" fill="#fff"/><path d="M140 1075.33h280" stroke="#5e5e5e" stroke-width="3" fill="none"/><use xlink:href="#P" transform="matrix(1,0,0,1,148,1043.0638712224434) translate(74.81049382716053 16.544444444444444)"/><use xlink:href="#Q" transform="matrix(1,0,0,1,152,1083.33053788911) translate(2.1111111111111143 58.611111111111114)"/><use xlink:href="#m" transform="matrix(1,0,0,1,152,1083.33053788911) translate(76.12345679012346 58.611111111111114)"/><use xlink:href="#n" transform="matrix(1,0,0,1,152,1083.33053788911) translate(136.6172839506173 58.611111111111114)"/><use xlink:href="#R" transform="matrix(1,0,0,1,152,1083.33053788911) translate(185.87654320987656 58.611111111111114)"/><use xlink:href="#S" transform="matrix(1,0,0,1,152,1083.33053788911) translate(45.29012345679013 85.27777777777777)"/><use xlink:href="#T" transform="matrix(1,0,0,1,152,1083.33053788911) translate(95.84567901234568 85.27777777777777)"/><use xlink:href="#u" transform="matrix(1,0,0,1,152,1083.33053788911) translate(156.21604938271605 85.27777777777777)"/><path d="M646.07 1102.1H440" stroke="#5e5e5e" stroke-width="2" fill="none"/><path d="M647.07 1103.1h-1.02v-2h1.02" fill="#5e5e5e"/><path d="M424.74 1102.1l14.26-4.63v9.27z" stroke="#5e5e5e" stroke-width="2" fill="#5e5e5e"/><path d="M422.5 1190.36h375.8c3.3 0 6-2.68 6-6V1140" stroke="#5e5e5e" stroke-width="2" fill="none"/><path d="M422.53 1191.36h-1.03v-2h1.03" fill="#5e5e5e"/><path d="M804.3 1124.74l4.62 14.26h-9.27z" stroke="#5e5e5e" stroke-width="2" fill="#5e5e5e"/><path d="M450 1166c0-3.3 2.7-6 6-6h198c3.3 0 6 2.7 6 6v24.67c0 3.3-2.7 6-6 6H456c-3.3 0-6-2.7-6-6z" stroke="#000" stroke-opacity="0" stroke-width="3" fill="#fff" fill-opacity="0"/><g><use xlink:href="#U" transform="matrix(1,0,0,1,455,1165) translate(48.20987654320987 19.46527777777778)"/><use xlink:href="#H" transform="matrix(1,0,0,1,455,1165) translate(108.7037037037037 19.46527777777778)"/></g><path d="M504.3 1106c0-3.3 2.67-6 6-6h48c3.3 0 6 2.7 6 6v48c0 3.3-2.7 6-6 6h-48c-3.33 0-6-2.7-6-6z" stroke="#000" stroke-opacity="0" stroke-width="3" fill="#fff" fill-opacity="0"/><g><use xlink:href="#V" transform="matrix(1,0,0,1,509.28585398207514,1105) translate(-2.7469135802469147 29.444444444444443)"/></g><path d="M880.3 733.87l.7 2.64 1.78 1.8 2.64.7h97.72v2h-97.98l-3.4-.92-2.54-2.53-.93-3.42V540h2m200.1 199v2h-80.47v-2" fill="#5e5e5e"/><path d="M1081.28 739.4l.28 1.6h-1.2v-2h1.1M883.93 539h-9.27l4.63-14.26z" fill="#5e5e5e"/><path d="M885.3 540h-12.02l6-18.5m-3.25 16.5h6.52l-3.26-10.03" fill="#5e5e5e"/><g><use xlink:href="#W" transform="matrix(1,0,0,1,983.1360377177904,729.3333333333334) translate(0.005000000000000782 14.222222222222223)"/></g><path d="M1161 985.8l-.92 3.42-2.53 2.53-3.42.92H980v-2h173.87l2.64-.7 1.8-1.8.7-2.63V870.17h2m0-21.33h-2v-48.5h2" fill="#5e5e5e"/><path d="M1161 799.35v1h-2v-1.04M979 996.3l-14.26-4.63 14.26-4.64z" fill="#5e5e5e"/><path d="M980 997.68l-18.5-6 18.5-6.02m-12.03 6l10.03 3.27v-6.52" fill="#5e5e5e"/><g><use xlink:href="#X" transform="matrix(1,0,0,1,1149.1851851851852,848.8380895066252) translate(0.005000000000000782 14.222222222222223)"/></g><path d="M1000 991.24c0-3.3 2.7-6 6-6h138c3.3 0 6 2.7 6 6v51.33c0 3.32-2.7 6-6 6h-138c-3.3 0-6-2.68-6-6z" stroke="#000" stroke-opacity="0" stroke-width="3" fill="#fff" fill-opacity="0"/><g><use xlink:href="#v" transform="matrix(1,0,0,1,1005,990.239309989059) translate(2.191358024691368 31.27777777777778)"/><use xlink:href="#w" transform="matrix(1,0,0,1,1005,990.239309989059) translate(82.31481481481481 31.27777777777778)"/></g><path d="M920 679.33c0-3.3 2.7-6 6-6h138c3.3 0 6 2.7 6 6v51.34c0 3.3-2.7 6-6 6H926c-3.3 0-6-2.7-6-6z" stroke="#000" stroke-opacity="0" stroke-width="3" fill="#fff" fill-opacity="0"/><g><use xlink:href="#v" transform="matrix(1,0,0,1,925,678.3333333333333) translate(2.191358024691368 31.27777777777778)"/><use xlink:href="#w" transform="matrix(1,0,0,1,925,678.3333333333333) translate(82.31481481481481 31.27777777777778)"/></g><path d="M1352.5 854.9H1276c-3.3 0-6-2.7-6-6V746c0-3.3-2.7-6-6-6h-6.9" stroke="#5e5e5e" stroke-width="2" fill="none"/><path d="M1353.5 855.9h-1.03v-2h1.03" fill="#5e5e5e"/><path d="M1241.85 740l14.26-4.64v9.28z" stroke="#5e5e5e" stroke-width="2" fill="#5e5e5e"/><path d="M1184.52 1093.6l-.92 3.42-2.53 2.53-3.42.92H962.5v-2h214.9l2.63-.7 1.78-1.8.72-2.63v-290.6h2" fill="#5e5e5e"/><path d="M962.53 1100.47h-1.03v-2h1.03M1188.16 801.74h-9.27l4.62-14.27z" fill="#5e5e5e"/><path d="M1189.53 802.74h-12.02l6.02-18.5m-3.26 16.5h6.52l-3.26-10.03M1117.33 501.52l2.52 2.53.93 3.4V689.8h-2V507.72l-.72-2.64-1.77-1.8-2.65-.7H962.5v-2h151.4" fill="#5e5e5e"/><path d="M962.53 502.6h-1.03v-2h1.03M1119.78 705.06l-4.64-14.27h9.27z" fill="#5e5e5e"/><path d="M1119.78 708.3l-6-18.5h12m-9.26 2l3.26 10.02 3.26-10.03" fill="#5e5e5e"/><path d="M980 506c0-3.3 2.7-6 6-6h48c3.3 0 6 2.7 6 6v48c0 3.3-2.7 6-6 6h-48c-3.3 0-6-2.7-6-6z" stroke="#000" stroke-opacity="0" stroke-width="3" fill="#fff" fill-opacity="0"/><g><use xlink:href="#k" transform="matrix(1,0,0,1,985,505) translate(-8.888888888888886 29.444444444444443)"/></g><path d="M1040 1066c0-3.3 2.7-6 6-6h48c3.3 0 6 2.7 6 6v48c0 3.3-2.7 6-6 6h-48c-3.3 0-6-2.7-6-6z" stroke="#000" stroke-opacity="0" stroke-width="3" fill="#fff" fill-opacity="0"/><g><use xlink:href="#k" transform="matrix(1,0,0,1,1045,1065) translate(-8.888888888888886 29.444444444444443)"/></g><path d="M1221.92 756.43v190.4c0 3.33 2.7 6 6 6H1335" stroke="#5e5e5e" stroke-width="2" fill="none"/><path d="M1222.92 756.46h-2v-.28l2-1.5" fill="#5e5e5e"/><path d="M1350.26 952.84l-14.26 4.64v-9.27z" stroke="#5e5e5e" stroke-width="2" fill="#5e5e5e"/><path d="M1280 742.67c0-3.32 2.7-6 6-6h138c3.3 0 6 2.68 6 6V794c0 3.3-2.7 6-6 6h-138c-3.3 0-6-2.7-6-6z" stroke="#000" stroke-opacity="0" stroke-width="3" fill="#fff" fill-opacity="0"/><g><use xlink:href="#v" transform="matrix(1,0,0,1,1285,741.6666666666666) translate(2.191358024691368 31.27777777777778)"/><use xlink:href="#w" transform="matrix(1,0,0,1,1285,741.6666666666666) translate(82.31481481481481 31.27777777777778)"/></g><path d="M90 110c0-3.3 2.7-6 6-6h558c3.3 0 6 2.7 6 6v84.33c0 3.32-2.7 6-6 6H96c-3.3 0-6-2.68-6-6z" fill="#c7e8ac" fill-opacity=".5"/><path d="M110 110.67c0-3.32 2.7-6 6-6h548c3.3 0 6 2.68 6 6v83.66c0 3.32-2.7 6-6 6H116c-3.3 0-6-2.68-6-6z" fill="#fff" fill-opacity="0"/><g><use xlink:href="#Y" transform="matrix(1,0,0,1,115,109.66666666666666) translate(0 32.28194444444445)"/><use xlink:href="#Z" transform="matrix(1,0,0,1,115,109.66666666666666) translate(181.63950617283953 32.28194444444445)"/><use xlink:href="#aa" transform="matrix(1,0,0,1,115,109.66666666666666) translate(201.92345679012348 32.28194444444445)"/><use xlink:href="#ab" transform="matrix(1,0,0,1,115,109.66666666666666) translate(482.8234567901235 32.28194444444445)"/><use xlink:href="#ac" transform="matrix(1,0,0,1,115,109.66666666666666) translate(0 60.548611111111114)"/><use xlink:href="#Z" transform="matrix(1,0,0,1,115,109.66666666666666) translate(168.5530864197531 60.548611111111114)"/><use xlink:href="#ad" transform="matrix(1,0,0,1,115,109.66666666666666) translate(188.83703703703705 60.548611111111114)"/><use xlink:href="#ae" transform="matrix(1,0,0,1,115,109.66666666666666) translate(456.71604938271616 60.548611111111114)"/></g><path d="M90 66c0-3.3 2.7-6 6-6h298c3.3 0 6 2.7 6 6v32.67c0 3.3-2.7 6-6 6H96c-3.3 0-6-2.7-6-6z" stroke="#000" stroke-opacity="0" stroke-width="3" fill="#fff" fill-opacity="0"/><g><use xlink:href="#af" transform="matrix(1,0,0,1,95,65) translate(0 25.29861111111111)"/></g><path d="M100 243.33c0-3.3 2.7-6 6-6h298c3.3 0 6 2.7 6 6V276c0 3.3-2.7 6-6 6H106c-3.3 0-6-2.7-6-6z" stroke="#000" stroke-opacity="0" stroke-width="3" fill="#fff" fill-opacity="0"/><g><use xlink:href="#ag" transform="matrix(1,0,0,1,105,242.33333333333334) translate(0 25.29861111111111)"/></g><defs><path d="M190-63c-7 42-38 67-86 67-59 0-84-38-90-98-12-110 154-137 174-36l-49 2c-2-19-15-32-35-32-30 0-35 28-38 64-6 74 65 87 74 30" id="ah"/><path d="M135-150c-39-12-60 13-60 57V0H25l-1-190h47c2 13-1 29 3 40 6-28 27-53 61-41v41" id="ai"/><path d="M185-48c-13 30-37 53-82 52C43 2 14-33 14-96s30-98 90-98c62 0 83 45 84 108H66c0 31 8 55 39 56 18 0 30-7 34-22zm-45-69c5-46-57-63-70-21-2 6-4 13-4 21h74" id="aj"/><path d="M133-34C117-15 103 5 69 4 32 3 11-16 11-54c-1-60 55-63 116-61 1-26-3-47-28-47-18 1-26 9-28 27l-52-2c7-38 36-58 82-57s74 22 75 68l1 82c-1 14 12 18 25 15v27c-30 8-71 5-69-32zm-48 3c29 0 43-24 42-57-32 0-66-3-65 30 0 17 8 27 23 27" id="ak"/><path d="M-4 44V30h207v14H-4" id="al"/><path d="M115-3C79 11 28 4 28-45v-112H4v-33h27l15-45h31v45h36v33H77v99c-1 23 16 31 38 25v30" id="am"/><path d="M135-194c52 0 70 43 70 98 0 56-19 99-73 100-30 1-46-15-58-35L72 0H24l1-261h50v104c11-23 29-37 60-37zM114-30c31 0 40-27 40-66 0-37-7-63-39-63s-41 28-41 65c0 36 8 64 40 64" id="an"/><path d="M25 0v-261h50V0H25" id="ao"/><path d="M110-194c64 0 96 36 96 99 0 64-35 99-97 99-61 0-95-36-95-99 0-62 34-99 96-99zm-1 164c35 0 45-28 45-65 0-40-10-65-43-65-34 0-45 26-45 65 0 36 10 65 43 65" id="ap"/><path d="M25-224v-37h50v37H25zM25 0v-190h50V0H25" id="aq"/><g id="a"><use transform="matrix(0.0685185185185185,0,0,0.0685185185185185,0,0)" xlink:href="#ah"/><use transform="matrix(0.0685185185185185,0,0,0.0685185185185185,13.7037037037037,0)" xlink:href="#ai"/><use transform="matrix(0.0685185185185185,0,0,0.0685185185185185,23.29629629629629,0)" xlink:href="#aj"/><use transform="matrix(0.0685185185185185,0,0,0.0685185185185185,36.99999999999999,0)" xlink:href="#ak"/><use transform="matrix(0.0685185185185185,0,0,0.0685185185185185,50.703703703703695,0)" xlink:href="#al"/><use transform="matrix(0.0685185185185185,0,0,0.0685185185185185,64.40740740740739,0)" xlink:href="#am"/><use transform="matrix(0.0685185185185185,0,0,0.0685185185185185,72.56111111111109,0)" xlink:href="#ak"/><use transform="matrix(0.0685185185185185,0,0,0.0685185185185185,86.26481481481478,0)" xlink:href="#an"/><use transform="matrix(0.0685185185185185,0,0,0.0685185185185185,101.27037037037034,0)" xlink:href="#ao"/><use transform="matrix(0.0685185185185185,0,0,0.0685185185185185,108.12222222222218,0)" xlink:href="#aj"/><use transform="matrix(0.0685185185185185,0,0,0.0685185185185185,121.82592592592587,0)" xlink:href="#ai"/><use transform="matrix(0.0685185185185185,0,0,0.0685185185185185,131.41851851851845,0)" xlink:href="#ap"/><use transform="matrix(0.0685185185185185,0,0,0.0685185185185185,146.424074074074,0)" xlink:href="#al"/><use transform="matrix(0.0685185185185185,0,0,0.0685185185185185,160.1277777777777,0)" xlink:href="#ak"/><use transform="matrix(0.0685185185185185,0,0,0.0685185185185185,173.83148148148143,0)" xlink:href="#ao"/><use transform="matrix(0.0685185185185185,0,0,0.0685185185185185,180.68333333333325,0)" xlink:href="#aj"/><use transform="matrix(0.0685185185185185,0,0,0.0685185185185185,194.38703703703695,0)" xlink:href="#ak"/><use transform="matrix(0.0685185185185185,0,0,0.0685185185185185,208.09074074074064,0)" xlink:href="#am"/><use transform="matrix(0.0685185185185185,0,0,0.0685185185185185,216.24444444444435,0)" xlink:href="#ap"/><use transform="matrix(0.0685185185185185,0,0,0.0685185185185185,231.24999999999991,0)" xlink:href="#ai"/><use transform="matrix(0.0685185185185185,0,0,0.0685185185185185,240.8425925925925,0)" xlink:href="#aq"/><use transform="matrix(0.0685185185185185,0,0,0.0685185185185185,247.69444444444434,0)" xlink:href="#ap"/></g><path fill="#333" d="M177-190C167-65 218 103 67 71c-23-6-38-20-44-43l32-5c15 47 100 32 89-28v-30C133-14 115 1 83 1 29 1 15-40 15-95c0-56 16-97 71-98 29-1 48 16 59 35 1-10 0-23 2-32h30zM94-22c36 0 50-32 50-73 0-42-14-75-50-75-39 0-46 34-46 75s6 73 46 73" id="ar"/><path fill="#333" d="M100-194c63 0 86 42 84 106H49c0 40 14 67 53 68 26 1 43-12 49-29l28 8c-11 28-37 45-77 45C44 4 14-33 15-96c1-61 26-98 85-98zm52 81c6-60-76-77-97-28-3 7-6 17-6 28h103" id="as"/><path fill="#333" d="M117-194c89-4 53 116 60 194h-32v-121c0-31-8-49-39-48C34-167 62-67 57 0H25l-1-190h30c1 10-1 24 2 32 11-22 29-35 61-36" id="at"/><path fill="#333" d="M114-163C36-179 61-72 57 0H25l-1-190h30c1 12-1 29 2 39 6-27 23-49 58-41v29" id="au"/><path fill="#333" d="M141-36C126-15 110 5 73 4 37 3 15-17 15-53c-1-64 63-63 125-63 3-35-9-54-41-54-24 1-41 7-42 31l-33-3c5-37 33-52 76-52 45 0 72 20 72 64v82c-1 20 7 32 28 27v20c-31 9-61-2-59-35zM48-53c0 20 12 33 32 33 41-3 63-29 60-74-43 2-92-5-92 41" id="av"/><g id="b"><use transform="matrix(0.06172839506172839,0,0,0.06172839506172839,0,0)" xlink:href="#ar"/><use transform="matrix(0.06172839506172839,0,0,0.06172839506172839,12.345679012345679,0)" xlink:href="#as"/><use transform="matrix(0.06172839506172839,0,0,0.06172839506172839,24.691358024691358,0)" xlink:href="#at"/><use transform="matrix(0.06172839506172839,0,0,0.06172839506172839,37.03703703703704,0)" xlink:href="#as"/><use transform="matrix(0.06172839506172839,0,0,0.06172839506172839,49.382716049382715,0)" xlink:href="#au"/><use transform="matrix(0.06172839506172839,0,0,0.06172839506172839,56.72839506172839,0)" xlink:href="#av"/></g><path fill="#333" d="M59-47c-2 24 18 29 38 22v24C64 9 27 4 27-40v-127H5v-23h24l9-43h21v43h35v23H59v120" id="aw"/><path fill="#333" d="M115-194c53 0 69 39 70 98 0 66-23 100-70 100C84 3 66-7 56-30L54 0H23l1-261h32v101c10-23 28-34 59-34zm-8 174c40 0 45-34 45-75 0-40-5-75-45-74-42 0-51 32-51 76 0 43 10 73 51 73" id="ax"/><path fill="#333" d="M24 0v-261h32V0H24" id="ay"/><path fill="#333" d="M100-194c62-1 85 37 85 99 1 63-27 99-86 99S16-35 15-95c0-66 28-99 85-99zM99-20c44 1 53-31 53-75 0-43-8-75-51-75s-53 32-53 75 10 74 51 75" id="az"/><g id="c"><use transform="matrix(0.06172839506172839,0,0,0.06172839506172839,0,0)" xlink:href="#aw"/><use transform="matrix(0.06172839506172839,0,0,0.06172839506172839,6.172839506172839,0)" xlink:href="#av"/><use transform="matrix(0.06172839506172839,0,0,0.06172839506172839,18.51851851851852,0)" xlink:href="#ax"/><use transform="matrix(0.06172839506172839,0,0,0.06172839506172839,30.864197530864196,0)" xlink:href="#ay"/><use transform="matrix(0.06172839506172839,0,0,0.06172839506172839,35.74074074074074,0)" xlink:href="#as"/><use transform="matrix(0.06172839506172839,0,0,0.06172839506172839,48.08641975308642,0)" xlink:href="#au"/><use transform="matrix(0.06172839506172839,0,0,0.06172839506172839,55.432098765432094,0)" xlink:href="#az"/></g><path fill="#333" d="M24-231v-30h32v30H24zM24 0v-190h32V0H24" id="aA"/><g id="d"><use transform="matrix(0.06172839506172839,0,0,0.06172839506172839,0,0)" xlink:href="#av"/><use transform="matrix(0.06172839506172839,0,0,0.06172839506172839,12.345679012345679,0)" xlink:href="#ay"/><use transform="matrix(0.06172839506172839,0,0,0.06172839506172839,17.22222222222222,0)" xlink:href="#as"/><use transform="matrix(0.06172839506172839,0,0,0.06172839506172839,29.5679012345679,0)" xlink:href="#av"/><use transform="matrix(0.06172839506172839,0,0,0.06172839506172839,41.913580246913575,0)" xlink:href="#aw"/><use transform="matrix(0.06172839506172839,0,0,0.06172839506172839,48.08641975308642,0)" xlink:href="#az"/><use transform="matrix(0.06172839506172839,0,0,0.06172839506172839,60.432098765432094,0)" xlink:href="#au"/><use transform="matrix(0.06172839506172839,0,0,0.06172839506172839,67.77777777777777,0)" xlink:href="#aA"/><use transform="matrix(0.06172839506172839,0,0,0.06172839506172839,72.65432098765432,0)" xlink:href="#az"/></g><g id="f"><use transform="matrix(0.06172839506172839,0,0,0.06172839506172839,0,0)" xlink:href="#aA"/><use transform="matrix(0.06172839506172839,0,0,0.06172839506172839,4.876543209876543,0)" xlink:href="#aw"/><use transform="matrix(0.06172839506172839,0,0,0.06172839506172839,11.049382716049383,0)" xlink:href="#as"/><use transform="matrix(0.06172839506172839,0,0,0.06172839506172839,23.395061728395063,0)" xlink:href="#au"/><use transform="matrix(0.06172839506172839,0,0,0.06172839506172839,30.74074074074074,0)" xlink:href="#av"/></g><path fill="#333" d="M115-194c55 1 70 41 70 98S169 2 115 4C84 4 66-9 55-30l1 105H24l-1-265h31l2 30c10-21 28-34 59-34zm-8 174c40 0 45-34 45-75s-6-73-45-74c-42 0-51 32-51 76 0 43 10 73 51 73" id="aB"/><g id="g"><use transform="matrix(0.06172839506172839,0,0,0.06172839506172839,0,0)" xlink:href="#aB"/><use transform="matrix(0.06172839506172839,0,0,0.06172839506172839,12.345679012345679,0)" xlink:href="#az"/><use transform="matrix(0.06172839506172839,0,0,0.06172839506172839,24.691358024691358,0)" xlink:href="#au"/></g><path fill="#333" d="M85-194c31 0 48 13 60 33l-1-100h32l1 261h-30c-2-10 0-23-3-31C134-8 116 4 85 4 32 4 16-35 15-94c0-66 23-100 70-100zm9 24c-40 0-46 34-46 75 0 40 6 74 45 74 42 0 51-32 51-76 0-42-9-74-50-73" id="aC"/><path fill="#333" d="M135-143c-3-34-86-38-87 0 15 53 115 12 119 90S17 21 10-45l28-5c4 36 97 45 98 0-10-56-113-15-118-90-4-57 82-63 122-42 12 7 21 19 24 35" id="aD"/><g id="h"><use transform="matrix(0.06172839506172839,0,0,0.06172839506172839,0,0)" xlink:href="#aw"/><use transform="matrix(0.06172839506172839,0,0,0.06172839506172839,6.172839506172839,0)" xlink:href="#az"/><use transform="matrix(0.06172839506172839,0,0,0.06172839506172839,18.51851851851852,0)" xlink:href="#aC"/><use transform="matrix(0.06172839506172839,0,0,0.06172839506172839,30.864197530864196,0)" xlink:href="#az"/><use transform="matrix(0.06172839506172839,0,0,0.06172839506172839,43.20987654320987,0)" xlink:href="#aD"/></g><g id="i"><use transform="matrix(0.06172839506172839,0,0,0.06172839506172839,0,0)" xlink:href="#ay"/><use transform="matrix(0.06172839506172839,0,0,0.06172839506172839,4.876543209876543,0)" xlink:href="#az"/><use transform="matrix(0.06172839506172839,0,0,0.06172839506172839,17.22222222222222,0)" xlink:href="#aD"/></g><path fill="#333" d="M96-169c-40 0-48 33-48 73s9 75 48 75c24 0 41-14 43-38l32 2c-6 37-31 61-74 61-59 0-76-41-82-99-10-93 101-131 147-64 4 7 5 14 7 22l-32 3c-4-21-16-35-41-35" id="aE"/><g id="j"><use transform="matrix(0.06172839506172839,0,0,0.06172839506172839,0,0)" xlink:href="#ax"/><use transform="matrix(0.06172839506172839,0,0,0.06172839506172839,12.345679012345679,0)" xlink:href="#av"/><use transform="matrix(0.06172839506172839,0,0,0.06172839506172839,24.691358024691358,0)" xlink:href="#au"/><use transform="matrix(0.06172839506172839,0,0,0.06172839506172839,32.03703703703704,0)" xlink:href="#aE"/><use transform="matrix(0.06172839506172839,0,0,0.06172839506172839,43.14814814814815,0)" xlink:href="#az"/><use transform="matrix(0.06172839506172839,0,0,0.06172839506172839,55.49382716049383,0)" xlink:href="#aD"/></g><g id="k"><use transform="matrix(0.06172839506172839,0,0,0.06172839506172839,0,0)" xlink:href="#aw"/><use transform="matrix(0.06172839506172839,0,0,0.06172839506172839,6.172839506172839,0)" xlink:href="#av"/><use transform="matrix(0.06172839506172839,0,0,0.06172839506172839,18.51851851851852,0)" xlink:href="#ax"/><use transform="matrix(0.06172839506172839,0,0,0.06172839506172839,30.864197530864196,0)" xlink:href="#ay"/><use transform="matrix(0.06172839506172839,0,0,0.06172839506172839,35.74074074074074,0)" xlink:href="#as"/><use transform="matrix(0.06172839506172839,0,0,0.06172839506172839,48.08641975308642,0)" xlink:href="#au"/><use transform="matrix(0.06172839506172839,0,0,0.06172839506172839,55.432098765432094,0)" xlink:href="#az"/></g><path d="M135-194c53 0 70 44 70 98 0 56-19 98-73 100-31 1-45-17-59-34 3 33 2 69 2 105H25l-1-265h48c2 10 0 23 3 31 11-24 29-35 60-35zM114-30c33 0 39-31 40-66 0-38-9-64-40-64-56 0-55 130 0 130" id="aF"/><path d="M137-138c1-29-70-34-71-4 15 46 118 7 119 86 1 83-164 76-172 9l43-7c4 19 20 25 44 25 33 8 57-30 24-41C81-84 22-81 20-136c-2-80 154-74 161-7" id="aG"/><path d="M135-194c87-1 58 113 63 194h-50c-7-57 23-157-34-157-59 0-34 97-39 157H25l-1-190h47c2 12-1 28 3 38 12-26 28-41 61-42" id="aH"/><g id="l"><use transform="matrix(0.05617283950617281,0,0,0.05617283950617281,0,0)" xlink:href="#aF"/><use transform="matrix(0.05617283950617281,0,0,0.05617283950617281,12.301851851851845,0)" xlink:href="#ap"/><use transform="matrix(0.05617283950617281,0,0,0.05617283950617281,24.60370370370369,0)" xlink:href="#aG"/><use transform="matrix(0.05617283950617281,0,0,0.05617283950617281,35.83827160493825,0)" xlink:href="#aq"/><use transform="matrix(0.05617283950617281,0,0,0.05617283950617281,41.45555555555553,0)" xlink:href="#ah"/><use transform="matrix(0.05617283950617281,0,0,0.05617283950617281,52.69012345679009,0)" xlink:href="#aq"/><use transform="matrix(0.05617283950617281,0,0,0.05617283950617281,58.307407407407375,0)" xlink:href="#ap"/><use transform="matrix(0.05617283950617281,0,0,0.05617283950617281,70.60925925925922,0)" xlink:href="#aH"/><use transform="matrix(0.05617283950617281,0,0,0.05617283950617281,82.91111111111107,0)" xlink:href="#ak"/><use transform="matrix(0.05617283950617281,0,0,0.05617283950617281,94.14567901234562,0)" xlink:href="#ai"/><use transform="matrix(0.05617283950617281,0,0,0.05617283950617281,102.00987654320981,0)" xlink:href="#al"/><use transform="matrix(0.05617283950617281,0,0,0.05617283950617281,113.24444444444437,0)" xlink:href="#an"/><use transform="matrix(0.05617283950617281,0,0,0.05617283950617281,125.54629629629622,0)" xlink:href="#ak"/><use transform="matrix(0.05617283950617281,0,0,0.05617283950617281,136.78086419753078,0)" xlink:href="#ai"/><use transform="matrix(0.05617283950617281,0,0,0.05617283950617281,144.64506172839498,0)" xlink:href="#ah"/><use transform="matrix(0.05617283950617281,0,0,0.05617283950617281,155.87962962962953,0)" xlink:href="#ap"/><use transform="matrix(0.05617283950617281,0,0,0.05617283950617281,168.18148148148137,0)" xlink:href="#al"/><use transform="matrix(0.05617283950617281,0,0,0.05617283950617281,179.41604938271593,0)" xlink:href="#ak"/><use transform="matrix(0.05617283950617281,0,0,0.05617283950617281,190.65061728395048,0)" xlink:href="#ao"/><use transform="matrix(0.05617283950617281,0,0,0.05617283950617281,196.26790123456777,0)" xlink:href="#aj"/><use transform="matrix(0.05617283950617281,0,0,0.05617283950617281,207.50246913580233,0)" xlink:href="#ak"/><use transform="matrix(0.05617283950617281,0,0,0.05617283950617281,218.73703703703688,0)" xlink:href="#am"/><use transform="matrix(0.05617283950617281,0,0,0.05617283950617281,225.42160493827146,0)" xlink:href="#ap"/><use transform="matrix(0.05617283950617281,0,0,0.05617283950617281,237.72345679012327,0)" xlink:href="#ai"/><use transform="matrix(0.05617283950617281,0,0,0.05617283950617281,245.58765432098753,0)" xlink:href="#aq"/><use transform="matrix(0.05617283950617281,0,0,0.05617283950617281,251.2049382716048,0)" xlink:href="#ap"/></g><path fill="#333" d="M68-38c1 34 0 65-14 84H32c9-13 17-26 17-46H33v-38h35" id="aI"/><g id="m"><use transform="matrix(0.06172839506172839,0,0,0.06172839506172839,0,0)" xlink:href="#at"/><use transform="matrix(0.06172839506172839,0,0,0.06172839506172839,12.345679012345679,0)" xlink:href="#aD"/><use transform="matrix(0.06172839506172839,0,0,0.06172839506172839,23.45679012345679,0)" xlink:href="#as"/><use transform="matrix(0.06172839506172839,0,0,0.06172839506172839,35.80246913580247,0)" xlink:href="#az"/><use transform="matrix(0.06172839506172839,0,0,0.06172839506172839,48.148148148148145,0)" xlink:href="#aI"/></g><path fill="#333" d="M87 75C49 33 22-17 22-94c0-76 28-126 65-167h31c-38 41-64 92-64 168S80 34 118 75H87" id="aJ"/><path fill="#333" d="M141 0L90-78 38 0H4l68-98-65-92h35l48 74 47-74h35l-64 92 68 98h-35" id="aK"/><path fill="#333" d="M179-190L93 31C79 59 56 82 12 73V49c39 6 53-20 64-50L1-190h34L92-34l54-156h33" id="aL"/><path fill="#333" d="M33-261c38 41 65 92 65 168S71 34 33 75H2C39 34 66-17 66-93S39-220 2-261h31" id="aM"/><g id="n"><use transform="matrix(0.06172839506172839,0,0,0.06172839506172839,0,0)" xlink:href="#aJ"/><use transform="matrix(0.06172839506172839,0,0,0.06172839506172839,7.345679012345679,0)" xlink:href="#aK"/><use transform="matrix(0.06172839506172839,0,0,0.06172839506172839,18.45679012345679,0)" xlink:href="#aI"/><use transform="matrix(0.06172839506172839,0,0,0.06172839506172839,24.62962962962963,0)" xlink:href="#aL"/><use transform="matrix(0.06172839506172839,0,0,0.06172839506172839,35.74074074074074,0)" xlink:href="#aM"/></g><g id="o"><use transform="matrix(0.06172839506172839,0,0,0.06172839506172839,0,0)" xlink:href="#av"/><use transform="matrix(0.06172839506172839,0,0,0.06172839506172839,12.345679012345679,0)" xlink:href="#ay"/><use transform="matrix(0.06172839506172839,0,0,0.06172839506172839,17.22222222222222,0)" xlink:href="#as"/><use transform="matrix(0.06172839506172839,0,0,0.06172839506172839,29.5679012345679,0)" xlink:href="#av"/><use transform="matrix(0.06172839506172839,0,0,0.06172839506172839,41.913580246913575,0)" xlink:href="#aw"/><use transform="matrix(0.06172839506172839,0,0,0.06172839506172839,48.08641975308642,0)" xlink:href="#az"/><use transform="matrix(0.06172839506172839,0,0,0.06172839506172839,60.432098765432094,0)" xlink:href="#au"/><use transform="matrix(0.06172839506172839,0,0,0.06172839506172839,67.77777777777777,0)" xlink:href="#aA"/><use transform="matrix(0.06172839506172839,0,0,0.06172839506172839,72.65432098765432,0)" xlink:href="#az"/><use transform="matrix(0.06172839506172839,0,0,0.06172839506172839,85,0)" xlink:href="#aD"/></g><path fill="#333" d="M106-169C34-169 62-67 57 0H25v-261h32l-1 103c12-21 28-36 61-36 89 0 53 116 60 194h-32v-121c2-32-8-49-39-48" id="aN"/><g id="p"><use transform="matrix(0.06172839506172839,0,0,0.06172839506172839,0,0)" xlink:href="#aN"/><use transform="matrix(0.06172839506172839,0,0,0.06172839506172839,12.345679012345679,0)" xlink:href="#av"/><use transform="matrix(0.06172839506172839,0,0,0.06172839506172839,24.691358024691358,0)" xlink:href="#aD"/><use transform="matrix(0.06172839506172839,0,0,0.06172839506172839,35.80246913580247,0)" xlink:href="#aw"/><use transform="matrix(0.06172839506172839,0,0,0.06172839506172839,41.97530864197531,0)" xlink:href="#av"/></g><path fill="#333" d="M145-31C134-9 116 4 85 4 32 4 16-35 15-94c0-59 17-99 70-100 32-1 48 14 60 33 0-11-1-24 2-32h30l-1 268h-32zM93-21c41 0 51-33 51-76s-8-73-50-73c-40 0-46 35-46 75s5 74 45 74" id="aO"/><path fill="#333" d="M84 4C-5 8 30-112 23-190h32v120c0 31 7 50 39 49 72-2 45-101 50-169h31l1 190h-30c-1-10 1-25-2-33-11 22-28 36-60 37" id="aP"/><g id="q"><use transform="matrix(0.06172839506172839,0,0,0.06172839506172839,0,0)" xlink:href="#aO"/><use transform="matrix(0.06172839506172839,0,0,0.06172839506172839,12.345679012345679,0)" xlink:href="#aP"/><use transform="matrix(0.06172839506172839,0,0,0.06172839506172839,24.691358024691358,0)" xlink:href="#as"/></g><g id="r"><use transform="matrix(0.06172839506172839,0,0,0.06172839506172839,0,0)" xlink:href="#aD"/><use transform="matrix(0.06172839506172839,0,0,0.06172839506172839,11.11111111111111,0)" xlink:href="#as"/></g><g id="s"><use transform="matrix(0.06172839506172839,0,0,0.06172839506172839,0,0)" xlink:href="#aB"/><use transform="matrix(0.06172839506172839,0,0,0.06172839506172839,12.345679012345679,0)" xlink:href="#aA"/><use transform="matrix(0.06172839506172839,0,0,0.06172839506172839,17.22222222222222,0)" xlink:href="#at"/><use transform="matrix(0.06172839506172839,0,0,0.06172839506172839,29.5679012345679,0)" xlink:href="#aw"/><use transform="matrix(0.06172839506172839,0,0,0.06172839506172839,35.74074074074074,0)" xlink:href="#as"/></g><path fill="#333" d="M27 0v-27h64v-190l-56 39v-29l58-41h29v221h61V0H27" id="aQ"/><use transform="matrix(0.06172839506172839,0,0,0.06172839506172839,0,0)" xlink:href="#aQ" id="t"/><g id="u"><use transform="matrix(0.06172839506172839,0,0,0.06172839506172839,0,0)" xlink:href="#ax"/><use transform="matrix(0.06172839506172839,0,0,0.06172839506172839,12.345679012345679,0)" xlink:href="#av"/><use transform="matrix(0.06172839506172839,0,0,0.06172839506172839,24.691358024691358,0)" xlink:href="#au"/><use transform="matrix(0.06172839506172839,0,0,0.06172839506172839,32.03703703703704,0)" xlink:href="#aE"/><use transform="matrix(0.06172839506172839,0,0,0.06172839506172839,43.14814814814815,0)" xlink:href="#az"/></g><g id="v"><use transform="matrix(0.06172839506172839,0,0,0.06172839506172839,0,0)" xlink:href="#aw"/><use transform="matrix(0.06172839506172839,0,0,0.06172839506172839,6.172839506172839,0)" xlink:href="#av"/><use transform="matrix(0.06172839506172839,0,0,0.06172839506172839,18.51851851851852,0)" xlink:href="#ax"/><use transform="matrix(0.06172839506172839,0,0,0.06172839506172839,30.864197530864196,0)" xlink:href="#ay"/><use transform="matrix(0.06172839506172839,0,0,0.06172839506172839,35.74074074074074,0)" xlink:href="#as"/><use transform="matrix(0.06172839506172839,0,0,0.06172839506172839,48.08641975308642,0)" xlink:href="#au"/><use transform="matrix(0.06172839506172839,0,0,0.06172839506172839,55.432098765432094,0)" xlink:href="#az"/><use transform="matrix(0.06172839506172839,0,0,0.06172839506172839,67.77777777777777,0)" xlink:href="#aI"/></g><g id="w"><use transform="matrix(0.06172839506172839,0,0,0.06172839506172839,0,0)" xlink:href="#ax"/><use transform="matrix(0.06172839506172839,0,0,0.06172839506172839,12.345679012345679,0)" xlink:href="#av"/><use transform="matrix(0.06172839506172839,0,0,0.06172839506172839,24.691358024691358,0)" xlink:href="#au"/><use transform="matrix(0.06172839506172839,0,0,0.06172839506172839,32.03703703703704,0)" xlink:href="#aE"/><use transform="matrix(0.06172839506172839,0,0,0.06172839506172839,43.14814814814815,0)" xlink:href="#az"/></g><g id="x"><use transform="matrix(0.05617283950617281,0,0,0.05617283950617281,0,0)" xlink:href="#aF"/><use transform="matrix(0.05617283950617281,0,0,0.05617283950617281,12.301851851851845,0)" xlink:href="#aq"/><use transform="matrix(0.05617283950617281,0,0,0.05617283950617281,17.919135802469125,0)" xlink:href="#aH"/><use transform="matrix(0.05617283950617281,0,0,0.05617283950617281,30.22098765432097,0)" xlink:href="#am"/><use transform="matrix(0.05617283950617281,0,0,0.05617283950617281,36.90555555555554,0)" xlink:href="#ak"/><use transform="matrix(0.05617283950617281,0,0,0.05617283950617281,48.1401234567901,0)" xlink:href="#ai"/><use transform="matrix(0.05617283950617281,0,0,0.05617283950617281,56.004320987654296,0)" xlink:href="#al"/><use transform="matrix(0.05617283950617281,0,0,0.05617283950617281,67.23888888888885,0)" xlink:href="#an"/><use transform="matrix(0.05617283950617281,0,0,0.05617283950617281,79.5407407407407,0)" xlink:href="#ak"/><use transform="matrix(0.05617283950617281,0,0,0.05617283950617281,90.77530864197526,0)" xlink:href="#ai"/><use transform="matrix(0.05617283950617281,0,0,0.05617283950617281,98.63950617283945,0)" xlink:href="#ah"/><use transform="matrix(0.05617283950617281,0,0,0.05617283950617281,109.874074074074,0)" xlink:href="#ap"/></g><g id="y"><use transform="matrix(0.06172839506172839,0,0,0.06172839506172839,0,0)" xlink:href="#aB"/><use transform="matrix(0.06172839506172839,0,0,0.06172839506172839,12.345679012345679,0)" xlink:href="#aA"/><use transform="matrix(0.06172839506172839,0,0,0.06172839506172839,17.22222222222222,0)" xlink:href="#at"/><use transform="matrix(0.06172839506172839,0,0,0.06172839506172839,29.5679012345679,0)" xlink:href="#aw"/><use transform="matrix(0.06172839506172839,0,0,0.06172839506172839,35.74074074074074,0)" xlink:href="#av"/></g><g id="z"><use transform="matrix(0.06172839506172839,0,0,0.06172839506172839,0,0)" xlink:href="#ax"/><use transform="matrix(0.06172839506172839,0,0,0.06172839506172839,12.345679012345679,0)" xlink:href="#av"/><use transform="matrix(0.06172839506172839,0,0,0.06172839506172839,24.691358024691358,0)" xlink:href="#au"/><use transform="matrix(0.06172839506172839,0,0,0.06172839506172839,32.03703703703704,0)" xlink:href="#aE"/><use transform="matrix(0.06172839506172839,0,0,0.06172839506172839,43.14814814814815,0)" xlink:href="#az"/></g><g id="A"><use transform="matrix(0.06172839506172839,0,0,0.06172839506172839,0,0)" xlink:href="#aD"/><use transform="matrix(0.06172839506172839,0,0,0.06172839506172839,11.11111111111111,0)" xlink:href="#aA"/></g><g id="B"><use transform="matrix(0.06172839506172839,0,0,0.06172839506172839,0,0)" xlink:href="#aD"/><use transform="matrix(0.06172839506172839,0,0,0.06172839506172839,11.11111111111111,0)" xlink:href="#as"/></g><path fill="#333" d="M210-169c-67 3-38 105-44 169h-31v-121c0-29-5-50-35-48C34-165 62-65 56 0H25l-1-190h30c1 10-1 24 2 32 10-44 99-50 107 0 11-21 27-35 58-36 85-2 47 119 55 194h-31v-121c0-29-5-49-35-48" id="aR"/><g id="C"><use transform="matrix(0.06172839506172839,0,0,0.06172839506172839,0,0)" xlink:href="#aE"/><use transform="matrix(0.06172839506172839,0,0,0.06172839506172839,11.11111111111111,0)" xlink:href="#aP"/><use transform="matrix(0.06172839506172839,0,0,0.06172839506172839,23.45679012345679,0)" xlink:href="#aR"/><use transform="matrix(0.06172839506172839,0,0,0.06172839506172839,41.91358024691358,0)" xlink:href="#aB"/><use transform="matrix(0.06172839506172839,0,0,0.06172839506172839,54.25925925925926,0)" xlink:href="#ay"/><use transform="matrix(0.06172839506172839,0,0,0.06172839506172839,59.135802469135804,0)" xlink:href="#as"/><use transform="matrix(0.06172839506172839,0,0,0.06172839506172839,71.48148148148148,0)" xlink:href="#at"/></g><g id="D"><use transform="matrix(0.06172839506172839,0,0,0.06172839506172839,0,0)" xlink:href="#ay"/><use transform="matrix(0.06172839506172839,0,0,0.06172839506172839,4.876543209876543,0)" xlink:href="#av"/><use transform="matrix(0.06172839506172839,0,0,0.06172839506172839,17.22222222222222,0)" xlink:href="#aD"/></g><g id="E"><use transform="matrix(0.06172839506172839,0,0,0.06172839506172839,0,0)" xlink:href="#aE"/><use transform="matrix(0.06172839506172839,0,0,0.06172839506172839,11.11111111111111,0)" xlink:href="#az"/><use transform="matrix(0.06172839506172839,0,0,0.06172839506172839,23.45679012345679,0)" xlink:href="#at"/><use transform="matrix(0.06172839506172839,0,0,0.06172839506172839,35.80246913580247,0)" xlink:href="#aC"/><use transform="matrix(0.06172839506172839,0,0,0.06172839506172839,48.148148148148145,0)" xlink:href="#aA"/><use transform="matrix(0.06172839506172839,0,0,0.06172839506172839,53.02469135802469,0)" xlink:href="#aE"/><use transform="matrix(0.06172839506172839,0,0,0.06172839506172839,64.1358024691358,0)" xlink:href="#aA"/><use transform="matrix(0.06172839506172839,0,0,0.06172839506172839,69.01234567901234,0)" xlink:href="#az"/><use transform="matrix(0.06172839506172839,0,0,0.06172839506172839,81.35802469135803,0)" xlink:href="#at"/><use transform="matrix(0.06172839506172839,0,0,0.06172839506172839,93.70370370370371,0)" xlink:href="#as"/><use transform="matrix(0.06172839506172839,0,0,0.06172839506172839,106.0493827160494,0)" xlink:href="#aD"/></g><g id="F"><use transform="matrix(0.06172839506172839,0,0,0.06172839506172839,0,0)" xlink:href="#ax"/><use transform="matrix(0.06172839506172839,0,0,0.06172839506172839,12.345679012345679,0)" xlink:href="#av"/><use transform="matrix(0.06172839506172839,0,0,0.06172839506172839,24.691358024691358,0)" xlink:href="#au"/><use transform="matrix(0.06172839506172839,0,0,0.06172839506172839,32.03703703703704,0)" xlink:href="#aE"/><use transform="matrix(0.06172839506172839,0,0,0.06172839506172839,43.14814814814815,0)" xlink:href="#az"/><use transform="matrix(0.06172839506172839,0,0,0.06172839506172839,55.49382716049383,0)" xlink:href="#aI"/></g><g id="G"><use transform="matrix(0.06172839506172839,0,0,0.06172839506172839,0,0)" xlink:href="#at"/><use transform="matrix(0.06172839506172839,0,0,0.06172839506172839,12.345679012345679,0)" xlink:href="#aD"/><use transform="matrix(0.06172839506172839,0,0,0.06172839506172839,23.45679012345679,0)" xlink:href="#as"/><use transform="matrix(0.06172839506172839,0,0,0.06172839506172839,35.80246913580247,0)" xlink:href="#az"/><use transform="matrix(0.06172839506172839,0,0,0.06172839506172839,48.148148148148145,0)" xlink:href="#aI"/></g><g id="H"><use transform="matrix(0.06172839506172839,0,0,0.06172839506172839,0,0)" xlink:href="#aJ"/><use transform="matrix(0.06172839506172839,0,0,0.06172839506172839,7.345679012345679,0)" xlink:href="#aK"/><use transform="matrix(0.06172839506172839,0,0,0.06172839506172839,18.45679012345679,0)" xlink:href="#aI"/><use transform="matrix(0.06172839506172839,0,0,0.06172839506172839,24.62962962962963,0)" xlink:href="#aL"/><use transform="matrix(0.06172839506172839,0,0,0.06172839506172839,35.74074074074074,0)" xlink:href="#aM"/></g><g id="I"><use transform="matrix(0.06172839506172839,0,0,0.06172839506172839,0,0)" xlink:href="#ax"/><use transform="matrix(0.06172839506172839,0,0,0.06172839506172839,12.345679012345679,0)" xlink:href="#az"/><use transform="matrix(0.06172839506172839,0,0,0.06172839506172839,24.691358024691358,0)" xlink:href="#az"/><use transform="matrix(0.06172839506172839,0,0,0.06172839506172839,37.03703703703704,0)" xlink:href="#ay"/><use transform="matrix(0.06172839506172839,0,0,0.06172839506172839,41.91358024691358,0)" xlink:href="#as"/><use transform="matrix(0.06172839506172839,0,0,0.06172839506172839,54.25925925925926,0)" xlink:href="#av"/><use transform="matrix(0.06172839506172839,0,0,0.06172839506172839,66.60493827160494,0)" xlink:href="#at"/><use transform="matrix(0.06172839506172839,0,0,0.06172839506172839,78.95061728395062,0)" xlink:href="#az"/></g><path d="M85 4C-2 5 27-109 22-190h50c7 57-23 150 33 157 60-5 35-97 40-157h50l1 190h-47c-2-12 1-28-3-38-12 25-28 42-61 42" id="aS"/><g id="J"><use transform="matrix(0.0685185185185185,0,0,0.0685185185185185,0,0)" xlink:href="#ah"/><use transform="matrix(0.0685185185185185,0,0,0.0685185185185185,13.7037037037037,0)" xlink:href="#ai"/><use transform="matrix(0.0685185185185185,0,0,0.0685185185185185,23.29629629629629,0)" xlink:href="#aj"/><use transform="matrix(0.0685185185185185,0,0,0.0685185185185185,36.99999999999999,0)" xlink:href="#ak"/><use transform="matrix(0.0685185185185185,0,0,0.0685185185185185,50.703703703703695,0)" xlink:href="#al"/><use transform="matrix(0.0685185185185185,0,0,0.0685185185185185,64.40740740740739,0)" xlink:href="#am"/><use transform="matrix(0.0685185185185185,0,0,0.0685185185185185,72.56111111111109,0)" xlink:href="#ak"/><use transform="matrix(0.0685185185185185,0,0,0.0685185185185185,86.26481481481478,0)" xlink:href="#an"/><use transform="matrix(0.0685185185185185,0,0,0.0685185185185185,101.27037037037034,0)" xlink:href="#ao"/><use transform="matrix(0.0685185185185185,0,0,0.0685185185185185,108.12222222222218,0)" xlink:href="#aj"/><use transform="matrix(0.0685185185185185,0,0,0.0685185185185185,121.82592592592587,0)" xlink:href="#ai"/><use transform="matrix(0.0685185185185185,0,0,0.0685185185185185,131.41851851851845,0)" xlink:href="#ap"/><use transform="matrix(0.0685185185185185,0,0,0.0685185185185185,146.424074074074,0)" xlink:href="#al"/><use transform="matrix(0.0685185185185185,0,0,0.0685185185185185,160.1277777777777,0)" xlink:href="#aS"/><use transform="matrix(0.0685185185185185,0,0,0.0685185185185185,175.13333333333327,0)" xlink:href="#aG"/><use transform="matrix(0.0685185185185185,0,0,0.0685185185185185,188.83703703703696,0)" xlink:href="#aS"/><use transform="matrix(0.0685185185185185,0,0,0.0685185185185185,203.84259259259252,0)" xlink:href="#ak"/><use transform="matrix(0.0685185185185185,0,0,0.0685185185185185,217.54629629629622,0)" xlink:href="#ai"/><use transform="matrix(0.0685185185185185,0,0,0.0685185185185185,227.1388888888888,0)" xlink:href="#aq"/><use transform="matrix(0.0685185185185185,0,0,0.0685185185185185,233.99074074074065,0)" xlink:href="#ap"/></g><g id="K"><use transform="matrix(0.06172839506172839,0,0,0.06172839506172839,0,0)" xlink:href="#av"/><use transform="matrix(0.06172839506172839,0,0,0.06172839506172839,12.345679012345679,0)" xlink:href="#ay"/><use transform="matrix(0.06172839506172839,0,0,0.06172839506172839,17.22222222222222,0)" xlink:href="#as"/><use transform="matrix(0.06172839506172839,0,0,0.06172839506172839,29.5679012345679,0)" xlink:href="#av"/><use transform="matrix(0.06172839506172839,0,0,0.06172839506172839,41.913580246913575,0)" xlink:href="#aw"/><use transform="matrix(0.06172839506172839,0,0,0.06172839506172839,48.08641975308642,0)" xlink:href="#az"/><use transform="matrix(0.06172839506172839,0,0,0.06172839506172839,60.432098765432094,0)" xlink:href="#au"/><use transform="matrix(0.06172839506172839,0,0,0.06172839506172839,67.77777777777777,0)" xlink:href="#aA"/><use transform="matrix(0.06172839506172839,0,0,0.06172839506172839,72.65432098765432,0)" xlink:href="#az"/></g><path fill="#333" d="M0 4l72-265h28L28 4H0" id="aT"/><g id="L"><use transform="matrix(0.06172839506172839,0,0,0.06172839506172839,0,0)" xlink:href="#aL"/><use transform="matrix(0.06172839506172839,0,0,0.06172839506172839,11.11111111111111,0)" xlink:href="#aT"/><use transform="matrix(0.06172839506172839,0,0,0.06172839506172839,17.28395061728395,0)" xlink:href="#az"/></g><g id="M"><use transform="matrix(0.06172839506172839,0,0,0.06172839506172839,0,0)" xlink:href="#aR"/><use transform="matrix(0.06172839506172839,0,0,0.06172839506172839,18.456790123456788,0)" xlink:href="#av"/><use transform="matrix(0.06172839506172839,0,0,0.06172839506172839,30.80246913580247,0)" xlink:href="#at"/><use transform="matrix(0.06172839506172839,0,0,0.06172839506172839,43.148148148148145,0)" xlink:href="#aP"/><use transform="matrix(0.06172839506172839,0,0,0.06172839506172839,55.49382716049382,0)" xlink:href="#av"/><use transform="matrix(0.06172839506172839,0,0,0.06172839506172839,67.8395061728395,0)" xlink:href="#ay"/></g><g id="N"><use transform="matrix(0.05617283950617281,0,0,0.05617283950617281,0,0)" xlink:href="#aF"/><use transform="matrix(0.05617283950617281,0,0,0.05617283950617281,12.301851851851845,0)" xlink:href="#ap"/><use transform="matrix(0.05617283950617281,0,0,0.05617283950617281,24.60370370370369,0)" xlink:href="#aG"/><use transform="matrix(0.05617283950617281,0,0,0.05617283950617281,35.83827160493825,0)" xlink:href="#aq"/><use transform="matrix(0.05617283950617281,0,0,0.05617283950617281,41.45555555555553,0)" xlink:href="#ah"/><use transform="matrix(0.05617283950617281,0,0,0.05617283950617281,52.69012345679009,0)" xlink:href="#aq"/><use transform="matrix(0.05617283950617281,0,0,0.05617283950617281,58.307407407407375,0)" xlink:href="#ap"/><use transform="matrix(0.05617283950617281,0,0,0.05617283950617281,70.60925925925922,0)" xlink:href="#aH"/><use transform="matrix(0.05617283950617281,0,0,0.05617283950617281,82.91111111111107,0)" xlink:href="#ak"/><use transform="matrix(0.05617283950617281,0,0,0.05617283950617281,94.14567901234562,0)" xlink:href="#ai"/><use transform="matrix(0.05617283950617281,0,0,0.05617283950617281,102.00987654320981,0)" xlink:href="#al"/><use transform="matrix(0.05617283950617281,0,0,0.05617283950617281,113.24444444444437,0)" xlink:href="#an"/><use transform="matrix(0.05617283950617281,0,0,0.05617283950617281,125.54629629629622,0)" xlink:href="#ak"/><use transform="matrix(0.05617283950617281,0,0,0.05617283950617281,136.78086419753078,0)" xlink:href="#ai"/><use transform="matrix(0.05617283950617281,0,0,0.05617283950617281,144.64506172839498,0)" xlink:href="#ah"/><use transform="matrix(0.05617283950617281,0,0,0.05617283950617281,155.87962962962953,0)" xlink:href="#ap"/><use transform="matrix(0.05617283950617281,0,0,0.05617283950617281,168.18148148148137,0)" xlink:href="#al"/><use transform="matrix(0.05617283950617281,0,0,0.05617283950617281,179.41604938271593,0)" xlink:href="#aS"/><use transform="matrix(0.05617283950617281,0,0,0.05617283950617281,191.71790123456776,0)" xlink:href="#aG"/><use transform="matrix(0.05617283950617281,0,0,0.05617283950617281,202.95246913580232,0)" xlink:href="#aS"/><use transform="matrix(0.05617283950617281,0,0,0.05617283950617281,215.25432098765415,0)" xlink:href="#ak"/><use transform="matrix(0.05617283950617281,0,0,0.05617283950617281,226.4888888888887,0)" xlink:href="#ai"/><use transform="matrix(0.05617283950617281,0,0,0.05617283950617281,234.3530864197529,0)" xlink:href="#aq"/><use transform="matrix(0.05617283950617281,0,0,0.05617283950617281,239.97037037037018,0)" xlink:href="#ap"/></g><path fill="#333" d="M107 61C57 61 25 39 23-9c-2-65 71-58 78-115h30c1 64-76 54-76 114 0 30 21 42 52 43 32 0 53-17 56-46l32 2c-6 46-36 72-88 72zm26-251v35H99v-35h34" id="aU"/><path fill="#333" d="M103-251c84 0 111 97 45 133-19 10-37 24-39 52H78c0-63 77-55 77-114 0-30-21-42-52-43-32 0-53 17-56 46l-32-2c7-45 34-72 88-72zM77 0v-35h34V0H77" id="aV"/><g id="O"><use transform="matrix(0.06172839506172839,0,0,0.06172839506172839,0,0)" xlink:href="#aU"/><use transform="matrix(0.06172839506172839,0,0,0.06172839506172839,13.518518518518517,0)" xlink:href="#av"/><use transform="matrix(0.06172839506172839,0,0,0.06172839506172839,25.864197530864196,0)" xlink:href="#ay"/><use transform="matrix(0.06172839506172839,0,0,0.06172839506172839,30.74074074074074,0)" xlink:href="#as"/><use transform="matrix(0.06172839506172839,0,0,0.06172839506172839,43.08641975308642,0)" xlink:href="#av"/><use transform="matrix(0.06172839506172839,0,0,0.06172839506172839,55.432098765432094,0)" xlink:href="#aw"/><use transform="matrix(0.06172839506172839,0,0,0.06172839506172839,61.60493827160494,0)" xlink:href="#az"/><use transform="matrix(0.06172839506172839,0,0,0.06172839506172839,73.95061728395062,0)" xlink:href="#au"/><use transform="matrix(0.06172839506172839,0,0,0.06172839506172839,81.2962962962963,0)" xlink:href="#aA"/><use transform="matrix(0.06172839506172839,0,0,0.06172839506172839,86.17283950617285,0)" xlink:href="#az"/><use transform="matrix(0.06172839506172839,0,0,0.06172839506172839,98.51851851851853,0)" xlink:href="#aV"/></g><g id="P"><use transform="matrix(0.05617283950617281,0,0,0.05617283950617281,0,0)" xlink:href="#aq"/><use transform="matrix(0.05617283950617281,0,0,0.05617283950617281,5.6172839506172805,0)" xlink:href="#aH"/><use transform="matrix(0.05617283950617281,0,0,0.05617283950617281,17.919135802469125,0)" xlink:href="#aF"/><use transform="matrix(0.05617283950617281,0,0,0.05617283950617281,30.22098765432097,0)" xlink:href="#aS"/><use transform="matrix(0.05617283950617281,0,0,0.05617283950617281,42.522839506172815,0)" xlink:href="#am"/><use transform="matrix(0.05617283950617281,0,0,0.05617283950617281,49.20740740740738,0)" xlink:href="#al"/><use transform="matrix(0.05617283950617281,0,0,0.05617283950617281,60.44197530864194,0)" xlink:href="#an"/><use transform="matrix(0.05617283950617281,0,0,0.05617283950617281,72.7438271604938,0)" xlink:href="#ak"/><use transform="matrix(0.05617283950617281,0,0,0.05617283950617281,83.97839506172835,0)" xlink:href="#ai"/><use transform="matrix(0.05617283950617281,0,0,0.05617283950617281,91.84259259259254,0)" xlink:href="#ah"/><use transform="matrix(0.05617283950617281,0,0,0.05617283950617281,103.0771604938271,0)" xlink:href="#ap"/></g><g id="Q"><use transform="matrix(0.06172839506172839,0,0,0.06172839506172839,0,0)" xlink:href="#au"/><use transform="matrix(0.06172839506172839,0,0,0.06172839506172839,7.345679012345679,0)" xlink:href="#as"/><use transform="matrix(0.06172839506172839,0,0,0.06172839506172839,19.691358024691358,0)" xlink:href="#aE"/><use transform="matrix(0.06172839506172839,0,0,0.06172839506172839,30.80246913580247,0)" xlink:href="#az"/><use transform="matrix(0.06172839506172839,0,0,0.06172839506172839,43.148148148148145,0)" xlink:href="#ar"/><use transform="matrix(0.06172839506172839,0,0,0.06172839506172839,55.49382716049382,0)" xlink:href="#as"/></g><path fill="#333" d="M108 0H70L1-190h34L89-25l56-165h34" id="aW"/><path fill="#333" d="M141-36C126-15 110 5 73 4 37 3 15-17 15-53c-1-64 63-63 125-63 3-35-9-54-41-54-24 1-41 7-42 31l-33-3c5-37 33-52 76-52 45 0 72 20 72 64v82c-1 20 7 32 28 27v20c-31 9-61-2-59-35zM48-53c0 20 12 33 32 33 41-3 63-29 60-74-43 2-92-5-92 41zm25-158c8-23 27-35 38-54h36v5l-58 49H73" id="aX"/><g id="R"><use transform="matrix(0.06172839506172839,0,0,0.06172839506172839,0,0)" xlink:href="#aW"/><use transform="matrix(0.06172839506172839,0,0,0.06172839506172839,11.11111111111111,0)" xlink:href="#aX"/><use transform="matrix(0.06172839506172839,0,0,0.06172839506172839,23.45679012345679,0)" xlink:href="#ay"/><use transform="matrix(0.06172839506172839,0,0,0.06172839506172839,28.333333333333336,0)" xlink:href="#aA"/><use transform="matrix(0.06172839506172839,0,0,0.06172839506172839,33.20987654320988,0)" xlink:href="#aC"/><use transform="matrix(0.06172839506172839,0,0,0.06172839506172839,45.55555555555556,0)" xlink:href="#az"/><use transform="matrix(0.06172839506172839,0,0,0.06172839506172839,57.901234567901234,0)" xlink:href="#aD"/></g><g id="S"><use transform="matrix(0.06172839506172839,0,0,0.06172839506172839,0,0)" xlink:href="#aB"/><use transform="matrix(0.06172839506172839,0,0,0.06172839506172839,12.345679012345679,0)" xlink:href="#av"/><use transform="matrix(0.06172839506172839,0,0,0.06172839506172839,24.691358024691358,0)" xlink:href="#au"/><use transform="matrix(0.06172839506172839,0,0,0.06172839506172839,32.03703703703704,0)" xlink:href="#av"/></g><g id="T"><use transform="matrix(0.06172839506172839,0,0,0.06172839506172839,0,0)" xlink:href="#aE"/><use transform="matrix(0.06172839506172839,0,0,0.06172839506172839,11.11111111111111,0)" xlink:href="#aA"/><use transform="matrix(0.06172839506172839,0,0,0.06172839506172839,15.987654320987653,0)" xlink:href="#as"/><use transform="matrix(0.06172839506172839,0,0,0.06172839506172839,28.333333333333332,0)" xlink:href="#au"/><use transform="matrix(0.06172839506172839,0,0,0.06172839506172839,35.67901234567901,0)" xlink:href="#aw"/><use transform="matrix(0.06172839506172839,0,0,0.06172839506172839,41.851851851851855,0)" xlink:href="#az"/></g><g id="U"><use transform="matrix(0.06172839506172839,0,0,0.06172839506172839,0,0)" xlink:href="#at"/><use transform="matrix(0.06172839506172839,0,0,0.06172839506172839,12.345679012345679,0)" xlink:href="#aD"/><use transform="matrix(0.06172839506172839,0,0,0.06172839506172839,23.45679012345679,0)" xlink:href="#as"/><use transform="matrix(0.06172839506172839,0,0,0.06172839506172839,35.80246913580247,0)" xlink:href="#az"/><use transform="matrix(0.06172839506172839,0,0,0.06172839506172839,48.148148148148145,0)" xlink:href="#aI"/></g><g id="V"><use transform="matrix(0.06172839506172839,0,0,0.06172839506172839,0,0)" xlink:href="#ax"/><use transform="matrix(0.06172839506172839,0,0,0.06172839506172839,12.345679012345679,0)" xlink:href="#av"/><use transform="matrix(0.06172839506172839,0,0,0.06172839506172839,24.691358024691358,0)" xlink:href="#au"/><use transform="matrix(0.06172839506172839,0,0,0.06172839506172839,32.03703703703704,0)" xlink:href="#aE"/><use transform="matrix(0.06172839506172839,0,0,0.06172839506172839,43.14814814814815,0)" xlink:href="#az"/></g><path fill="#333" d="M169-182c-1-43-94-46-97-3 18 66 151 10 154 114 3 95-165 93-204 36-6-8-10-19-12-30l50-8c3 46 112 56 116 5-17-69-150-10-154-114-4-87 153-88 188-35 5 8 8 18 10 28" id="aY"/><path fill="#333" d="M25 0v-190h50V0H25zm-5-208v-5l45-51h45v8l-60 48H20" id="aZ"/><g id="W"><use transform="matrix(0.04938271604938272,0,0,0.04938271604938272,0,0)" xlink:href="#aY"/><use transform="matrix(0.04938271604938272,0,0,0.04938271604938272,11.851851851851853,0)" xlink:href="#aZ"/></g><path fill="#333" d="M135-194c87-1 58 113 63 194h-50c-7-57 23-157-34-157-59 0-34 97-39 157H25l-1-190h47c2 12-1 28 3 38 12-26 28-41 61-42" id="ba"/><path fill="#333" d="M110-194c64 0 96 36 96 99 0 64-35 99-97 99-61 0-95-36-95-99 0-62 34-99 96-99zm-1 164c35 0 45-28 45-65 0-40-10-65-43-65-34 0-45 26-45 65 0 36 10 65 43 65" id="bb"/><g id="X"><use transform="matrix(0.04938271604938272,0,0,0.04938271604938272,0,0)" xlink:href="#ba"/><use transform="matrix(0.04938271604938272,0,0,0.04938271604938272,10.814814814814815,0)" xlink:href="#bb"/></g><path fill="#333" d="M-5 72V49h209v23H-5" id="bc"/><g id="Y"><use transform="matrix(0.0654320987654321,0,0,0.0654320987654321,0,0)" xlink:href="#aw"/><use transform="matrix(0.0654320987654321,0,0,0.0654320987654321,6.5432098765432105,0)" xlink:href="#av"/><use transform="matrix(0.0654320987654321,0,0,0.0654320987654321,19.629629629629633,0)" xlink:href="#ax"/><use transform="matrix(0.0654320987654321,0,0,0.0654320987654321,32.71604938271605,0)" xlink:href="#ay"/><use transform="matrix(0.0654320987654321,0,0,0.0654320987654321,37.885185185185186,0)" xlink:href="#as"/><use transform="matrix(0.0654320987654321,0,0,0.0654320987654321,50.97160493827161,0)" xlink:href="#au"/><use transform="matrix(0.0654320987654321,0,0,0.0654320987654321,58.75802469135803,0)" xlink:href="#az"/><use transform="matrix(0.0654320987654321,0,0,0.0654320987654321,71.84444444444445,0)" xlink:href="#bc"/><use transform="matrix(0.0654320987654321,0,0,0.0654320987654321,84.93086419753087,0)" xlink:href="#aR"/><use transform="matrix(0.0654320987654321,0,0,0.0654320987654321,104.49506172839506,0)" xlink:href="#av"/><use transform="matrix(0.0654320987654321,0,0,0.0654320987654321,117.58148148148148,0)" xlink:href="#aO"/><use transform="matrix(0.0654320987654321,0,0,0.0654320987654321,130.6679012345679,0)" xlink:href="#aP"/><use transform="matrix(0.0654320987654321,0,0,0.0654320987654321,143.75432098765432,0)" xlink:href="#aA"/><use transform="matrix(0.0654320987654321,0,0,0.0654320987654321,148.92345679012345,0)" xlink:href="#at"/><use transform="matrix(0.0654320987654321,0,0,0.0654320987654321,162.00987654320988,0)" xlink:href="#av"/></g><path fill="#333" d="M18-150v-26h174v26H18zm0 90v-26h174v26H18" id="bd"/><use transform="matrix(0.0654320987654321,0,0,0.0654320987654321,0,0)" xlink:href="#bd" id="Z"/><path fill="#6897bb" d="M27 0v-27h64v-190l-56 39v-29l58-41h29v221h61V0H27" id="be"/><path fill="#6897bb" d="M101-251c68 0 85 55 85 127S166 4 100 4C33 4 14-52 14-124c0-73 17-127 87-127zm-1 229c47 0 54-49 54-102s-4-102-53-102c-51 0-55 48-55 102 0 53 5 102 54 102" id="bf"/><path fill="#cc7832" d="M68-38c1 34 0 65-14 84H32c9-13 17-26 17-46H33v-38h35" id="bg"/><g id="aa"><use transform="matrix(0.0654320987654321,0,0,0.0654320987654321,0,0)" xlink:href="#aE"/><use transform="matrix(0.0654320987654321,0,0,0.0654320987654321,11.777777777777779,0)" xlink:href="#au"/><use transform="matrix(0.0654320987654321,0,0,0.0654320987654321,19.5641975308642,0)" xlink:href="#as"/><use transform="matrix(0.0654320987654321,0,0,0.0654320987654321,32.65061728395062,0)" xlink:href="#av"/><use transform="matrix(0.0654320987654321,0,0,0.0654320987654321,45.73703703703704,0)" xlink:href="#bc"/><use transform="matrix(0.0654320987654321,0,0,0.0654320987654321,58.82345679012346,0)" xlink:href="#aw"/><use transform="matrix(0.0654320987654321,0,0,0.0654320987654321,65.36666666666667,0)" xlink:href="#av"/><use transform="matrix(0.0654320987654321,0,0,0.0654320987654321,78.45308641975309,0)" xlink:href="#ax"/><use transform="matrix(0.0654320987654321,0,0,0.0654320987654321,91.53950617283951,0)" xlink:href="#ay"/><use transform="matrix(0.0654320987654321,0,0,0.0654320987654321,96.70864197530865,0)" xlink:href="#as"/><use transform="matrix(0.0654320987654321,0,0,0.0654320987654321,109.79506172839507,0)" xlink:href="#au"/><use transform="matrix(0.0654320987654321,0,0,0.0654320987654321,117.58148148148149,0)" xlink:href="#az"/><use transform="matrix(0.0654320987654321,0,0,0.0654320987654321,130.66790123456792,0)" xlink:href="#bc"/><use transform="matrix(0.0654320987654321,0,0,0.0654320987654321,143.75432098765435,0)" xlink:href="#av"/><use transform="matrix(0.0654320987654321,0,0,0.0654320987654321,156.84074074074078,0)" xlink:href="#ay"/><use transform="matrix(0.0654320987654321,0,0,0.0654320987654321,162.0098765432099,0)" xlink:href="#as"/><use transform="matrix(0.0654320987654321,0,0,0.0654320987654321,175.09629629629634,0)" xlink:href="#av"/><use transform="matrix(0.0654320987654321,0,0,0.0654320987654321,188.18271604938278,0)" xlink:href="#aw"/><use transform="matrix(0.0654320987654321,0,0,0.0654320987654321,194.725925925926,0)" xlink:href="#az"/><use transform="matrix(0.0654320987654321,0,0,0.0654320987654321,207.81234567901242,0)" xlink:href="#au"/><use transform="matrix(0.0654320987654321,0,0,0.0654320987654321,215.59876543209884,0)" xlink:href="#aA"/><use transform="matrix(0.0654320987654321,0,0,0.0654320987654321,220.76790123456797,0)" xlink:href="#az"/><use transform="matrix(0.0654320987654321,0,0,0.0654320987654321,233.8543209876544,0)" xlink:href="#aJ"/><use transform="matrix(0.0654320987654321,0,0,0.0654320987654321,241.64074074074082,0)" xlink:href="#be"/><use transform="matrix(0.0654320987654321,0,0,0.0654320987654321,254.72716049382726,0)" xlink:href="#bf"/><use transform="matrix(0.0654320987654321,0,0,0.0654320987654321,267.81358024691366,0)" xlink:href="#bg"/></g><g id="ab"><use transform="matrix(0.0654320987654321,0,0,0.0654320987654321,0,0)" xlink:href="#be"/><use transform="matrix(0.0654320987654321,0,0,0.0654320987654321,13.086419753086421,0)" xlink:href="#bf"/><use transform="matrix(0.0654320987654321,0,0,0.0654320987654321,26.172839506172842,0)" xlink:href="#aM"/></g><g id="ac"><use transform="matrix(0.0654320987654321,0,0,0.0654320987654321,0,0)" xlink:href="#aw"/><use transform="matrix(0.0654320987654321,0,0,0.0654320987654321,6.5432098765432105,0)" xlink:href="#av"/><use transform="matrix(0.0654320987654321,0,0,0.0654320987654321,19.629629629629633,0)" xlink:href="#ax"/><use transform="matrix(0.0654320987654321,0,0,0.0654320987654321,32.71604938271605,0)" xlink:href="#ay"/><use transform="matrix(0.0654320987654321,0,0,0.0654320987654321,37.885185185185186,0)" xlink:href="#as"/><use transform="matrix(0.0654320987654321,0,0,0.0654320987654321,50.97160493827161,0)" xlink:href="#au"/><use transform="matrix(0.0654320987654321,0,0,0.0654320987654321,58.75802469135803,0)" xlink:href="#az"/><use transform="matrix(0.0654320987654321,0,0,0.0654320987654321,71.84444444444445,0)" xlink:href="#bc"/><use transform="matrix(0.0654320987654321,0,0,0.0654320987654321,84.93086419753087,0)" xlink:href="#aP"/><use transform="matrix(0.0654320987654321,0,0,0.0654320987654321,98.01728395061728,0)" xlink:href="#aD"/><use transform="matrix(0.0654320987654321,0,0,0.0654320987654321,109.79506172839507,0)" xlink:href="#aP"/><use transform="matrix(0.0654320987654321,0,0,0.0654320987654321,122.88148148148149,0)" xlink:href="#av"/><use transform="matrix(0.0654320987654321,0,0,0.0654320987654321,135.9679012345679,0)" xlink:href="#au"/><use transform="matrix(0.0654320987654321,0,0,0.0654320987654321,143.75432098765432,0)" xlink:href="#aA"/><use transform="matrix(0.0654320987654321,0,0,0.0654320987654321,148.92345679012345,0)" xlink:href="#az"/></g><g id="ad"><use transform="matrix(0.0654320987654321,0,0,0.0654320987654321,0,0)" xlink:href="#aE"/><use transform="matrix(0.0654320987654321,0,0,0.0654320987654321,11.777777777777779,0)" xlink:href="#au"/><use transform="matrix(0.0654320987654321,0,0,0.0654320987654321,19.5641975308642,0)" xlink:href="#as"/><use transform="matrix(0.0654320987654321,0,0,0.0654320987654321,32.65061728395062,0)" xlink:href="#av"/><use transform="matrix(0.0654320987654321,0,0,0.0654320987654321,45.73703703703704,0)" xlink:href="#bc"/><use transform="matrix(0.0654320987654321,0,0,0.0654320987654321,58.82345679012346,0)" xlink:href="#aw"/><use transform="matrix(0.0654320987654321,0,0,0.0654320987654321,65.36666666666667,0)" xlink:href="#av"/><use transform="matrix(0.0654320987654321,0,0,0.0654320987654321,78.45308641975309,0)" xlink:href="#ax"/><use transform="matrix(0.0654320987654321,0,0,0.0654320987654321,91.53950617283951,0)" xlink:href="#ay"/><use transform="matrix(0.0654320987654321,0,0,0.0654320987654321,96.70864197530865,0)" xlink:href="#as"/><use transform="matrix(0.0654320987654321,0,0,0.0654320987654321,109.79506172839507,0)" xlink:href="#au"/><use transform="matrix(0.0654320987654321,0,0,0.0654320987654321,117.58148148148149,0)" xlink:href="#az"/><use transform="matrix(0.0654320987654321,0,0,0.0654320987654321,130.66790123456792,0)" xlink:href="#bc"/><use transform="matrix(0.0654320987654321,0,0,0.0654320987654321,143.75432098765435,0)" xlink:href="#aP"/><use transform="matrix(0.0654320987654321,0,0,0.0654320987654321,156.84074074074078,0)" xlink:href="#aD"/><use transform="matrix(0.0654320987654321,0,0,0.0654320987654321,168.61851851851856,0)" xlink:href="#aP"/><use transform="matrix(0.0654320987654321,0,0,0.0654320987654321,181.70493827160496,0)" xlink:href="#av"/><use transform="matrix(0.0654320987654321,0,0,0.0654320987654321,194.79135802469142,0)" xlink:href="#au"/><use transform="matrix(0.0654320987654321,0,0,0.0654320987654321,202.57777777777784,0)" xlink:href="#aA"/><use transform="matrix(0.0654320987654321,0,0,0.0654320987654321,207.74691358024697,0)" xlink:href="#az"/><use transform="matrix(0.0654320987654321,0,0,0.0654320987654321,220.8333333333334,0)" xlink:href="#aJ"/><use transform="matrix(0.0654320987654321,0,0,0.0654320987654321,228.61975308641982,0)" xlink:href="#be"/><use transform="matrix(0.0654320987654321,0,0,0.0654320987654321,241.70617283950625,0)" xlink:href="#bf"/><use transform="matrix(0.0654320987654321,0,0,0.0654320987654321,254.79259259259268,0)" xlink:href="#bg"/></g><g id="ae"><use transform="matrix(0.0654320987654321,0,0,0.0654320987654321,0,0)" xlink:href="#be"/><use transform="matrix(0.0654320987654321,0,0,0.0654320987654321,13.086419753086421,0)" xlink:href="#bf"/><use transform="matrix(0.0654320987654321,0,0,0.0654320987654321,26.172839506172842,0)" xlink:href="#aM"/></g><path fill="#333" d="M33 0v-38h34V0H33" id="bh"/><g id="af"><use transform="matrix(0.08024691358024691,0,0,0.08024691358024691,0,0)" xlink:href="#aR"/><use transform="matrix(0.08024691358024691,0,0,0.08024691358024691,23.993827160493826,0)" xlink:href="#av"/><use transform="matrix(0.08024691358024691,0,0,0.08024691358024691,40.04320987654321,0)" xlink:href="#aA"/><use transform="matrix(0.08024691358024691,0,0,0.08024691358024691,46.382716049382715,0)" xlink:href="#at"/><use transform="matrix(0.08024691358024691,0,0,0.08024691358024691,62.4320987654321,0)" xlink:href="#bh"/><use transform="matrix(0.08024691358024691,0,0,0.08024691358024691,70.4567901234568,0)" xlink:href="#aB"/><use transform="matrix(0.08024691358024691,0,0,0.08024691358024691,86.50617283950619,0)" xlink:href="#aL"/></g><g id="ag"><use transform="matrix(0.08024691358024691,0,0,0.08024691358024691,0,0)" xlink:href="#aw"/><use transform="matrix(0.08024691358024691,0,0,0.08024691358024691,8.024691358024691,0)" xlink:href="#av"/><use transform="matrix(0.08024691358024691,0,0,0.08024691358024691,24.074074074074076,0)" xlink:href="#ax"/><use transform="matrix(0.08024691358024691,0,0,0.08024691358024691,40.123456790123456,0)" xlink:href="#ay"/><use transform="matrix(0.08024691358024691,0,0,0.08024691358024691,46.46296296296296,0)" xlink:href="#as"/><use transform="matrix(0.08024691358024691,0,0,0.08024691358024691,62.51234567901234,0)" xlink:href="#au"/><use transform="matrix(0.08024691358024691,0,0,0.08024691358024691,72.06172839506172,0)" xlink:href="#az"/><use transform="matrix(0.08024691358024691,0,0,0.08024691358024691,88.1111111111111,0)" xlink:href="#bh"/><use transform="matrix(0.08024691358024691,0,0,0.08024691358024691,96.1358024691358,0)" xlink:href="#aB"/><use transform="matrix(0.08024691358024691,0,0,0.08024691358024691,112.18518518518518,0)" xlink:href="#aL"/></g></defs></g></svg>